<svg xmlns="http://www.w3.org/2000/svg" viewBox="0 0 310 291" role="img" aria-label="MÁAK">
  <path d="M 241 272 L 239 274 L 238 274 L 238 275 L 236 277 L 236 285 L 239 288 L 241 288 L 242 289 L 245 289 L 246 288 L 248 288 L 251 285 L 252 285 L 252 284 L 253 283 L 253 278 L 252 277 L 252 276 L 249 273 L 248 273 L 247 272 Z M 61 272 L 60 273 L 59 273 L 57 275 L 57 276 L 56 277 L 56 281 L 57 282 L 57 284 L 58 285 L 58 286 L 60 288 L 61 288 L 62 289 L 67 289 L 68 288 L 69 288 L 72 285 L 72 284 L 73 283 L 73 277 L 71 275 L 71 274 L 70 274 L 67 272 Z M 155 208 L 154 208 L 150 212 L 150 213 L 148 215 L 148 216 L 145 219 L 145 220 L 143 222 L 143 223 L 142 224 L 142 225 L 139 230 L 139 232 L 138 233 L 138 235 L 137 236 L 137 238 L 136 239 L 136 245 L 135 246 L 135 247 L 136 248 L 136 255 L 137 256 L 137 259 L 138 260 L 138 262 L 139 263 L 139 264 L 140 265 L 141 268 L 145 273 L 145 274 L 148 277 L 148 278 L 153 283 L 155 283 L 157 281 L 158 281 L 159 280 L 159 279 L 164 274 L 165 271 L 167 269 L 167 268 L 168 267 L 168 266 L 171 261 L 171 259 L 172 258 L 172 255 L 173 254 L 173 240 L 172 239 L 172 236 L 171 235 L 171 233 L 170 232 L 170 230 L 169 229 L 169 228 L 168 227 L 167 224 L 165 222 L 165 221 L 163 219 L 163 218 L 161 216 L 161 215 L 159 213 L 159 212 Z M 216 195 L 217 198 L 221 202 L 221 203 L 227 209 L 227 210 L 230 213 L 230 214 L 232 216 L 232 217 L 233 218 L 233 219 L 236 224 L 236 226 L 238 229 L 238 232 L 239 233 L 239 236 L 240 237 L 240 242 L 241 243 L 241 250 L 242 251 L 242 253 L 243 254 L 245 254 L 246 253 L 248 253 L 249 252 L 250 252 L 252 250 L 253 250 L 255 248 L 256 248 L 258 246 L 259 246 L 264 241 L 265 241 L 268 238 L 268 237 L 274 231 L 274 230 L 277 227 L 277 226 L 278 225 L 278 224 L 280 222 L 280 221 L 281 220 L 281 219 L 282 218 L 282 217 L 283 216 L 283 215 L 286 210 L 286 208 L 287 207 L 287 200 L 285 198 L 285 197 L 284 197 L 282 195 L 280 195 L 279 194 L 218 194 L 217 195 Z M 24 197 L 22 199 L 22 200 L 21 201 L 21 205 L 22 206 L 22 209 L 23 210 L 23 212 L 24 213 L 24 214 L 25 215 L 25 216 L 26 217 L 27 220 L 29 222 L 29 223 L 31 225 L 31 226 L 33 228 L 33 229 L 37 233 L 37 234 L 48 245 L 49 245 L 53 249 L 56 250 L 58 252 L 59 252 L 62 254 L 66 254 L 67 253 L 67 250 L 68 249 L 68 240 L 69 239 L 69 235 L 70 234 L 70 231 L 71 230 L 71 228 L 73 225 L 73 223 L 74 222 L 74 221 L 76 219 L 76 218 L 77 217 L 78 214 L 81 211 L 81 210 L 83 208 L 83 207 L 92 198 L 93 195 L 92 195 L 91 194 L 32 194 L 31 195 L 28 195 L 27 196 Z M 223 228 L 222 227 L 222 226 L 221 225 L 220 222 L 218 220 L 217 217 L 214 214 L 214 213 L 202 201 L 201 201 L 195 195 L 194 195 L 190 191 L 189 191 L 186 188 L 185 188 L 181 184 L 180 184 L 177 181 L 176 181 L 174 179 L 173 179 L 166 173 L 165 173 L 163 171 L 162 171 L 160 169 L 159 169 L 157 167 L 156 167 L 155 166 L 154 167 L 153 167 L 152 168 L 149 169 L 147 171 L 146 171 L 143 174 L 142 174 L 140 176 L 139 176 L 137 178 L 136 178 L 133 181 L 132 181 L 129 184 L 128 184 L 125 187 L 124 187 L 121 190 L 120 190 L 116 194 L 115 194 L 111 198 L 110 198 L 105 203 L 104 203 L 97 210 L 97 211 L 93 215 L 93 216 L 89 221 L 89 222 L 88 223 L 88 224 L 85 229 L 85 231 L 84 232 L 84 234 L 83 235 L 83 237 L 82 238 L 82 242 L 81 243 L 81 257 L 82 258 L 82 262 L 83 263 L 83 265 L 84 266 L 84 267 L 85 268 L 86 271 L 88 273 L 88 274 L 95 281 L 96 281 L 101 285 L 103 285 L 106 287 L 108 287 L 109 288 L 111 288 L 112 289 L 117 289 L 118 290 L 134 290 L 135 289 L 135 287 L 134 286 L 133 283 L 131 281 L 131 280 L 130 279 L 130 278 L 129 277 L 129 276 L 128 275 L 128 274 L 125 269 L 125 267 L 123 264 L 123 261 L 122 260 L 122 256 L 121 255 L 121 240 L 122 239 L 122 235 L 123 234 L 123 232 L 124 231 L 124 229 L 126 226 L 126 224 L 127 223 L 128 220 L 130 218 L 131 215 L 133 213 L 133 212 L 135 210 L 135 209 L 137 207 L 137 206 L 139 204 L 139 203 L 141 201 L 141 200 L 143 198 L 143 197 L 145 195 L 145 194 L 148 191 L 148 190 L 150 188 L 150 187 L 154 182 L 155 182 L 156 183 L 156 184 L 160 189 L 161 192 L 163 194 L 163 195 L 165 197 L 165 198 L 167 200 L 167 201 L 169 203 L 169 204 L 172 207 L 173 210 L 175 212 L 175 213 L 179 218 L 179 219 L 180 220 L 180 221 L 181 222 L 181 223 L 182 224 L 182 225 L 185 230 L 185 232 L 186 233 L 186 236 L 187 237 L 187 242 L 188 243 L 188 253 L 187 254 L 187 258 L 186 259 L 186 262 L 185 263 L 185 265 L 184 266 L 184 268 L 181 273 L 181 275 L 180 276 L 180 277 L 178 279 L 178 280 L 177 281 L 177 282 L 174 287 L 174 290 L 192 290 L 193 289 L 197 289 L 198 288 L 200 288 L 201 287 L 203 287 L 204 286 L 205 286 L 206 285 L 209 284 L 211 282 L 212 282 L 215 279 L 216 279 L 218 277 L 218 276 L 221 273 L 221 272 L 223 270 L 223 269 L 226 264 L 226 261 L 227 260 L 227 255 L 228 254 L 228 246 L 227 245 L 227 240 L 226 239 L 226 236 L 225 235 L 225 233 L 223 230 Z M 274 123 L 273 124 L 271 124 L 270 125 L 268 125 L 267 126 L 266 126 L 265 127 L 262 128 L 258 132 L 257 132 L 256 133 L 256 134 L 253 137 L 253 138 L 250 143 L 250 145 L 249 146 L 249 159 L 250 160 L 250 162 L 251 163 L 251 165 L 252 166 L 252 167 L 254 169 L 254 170 L 262 178 L 265 179 L 267 181 L 269 181 L 270 182 L 272 182 L 273 183 L 285 183 L 286 182 L 288 182 L 289 181 L 291 181 L 293 179 L 296 178 L 304 170 L 304 169 L 305 168 L 305 167 L 308 162 L 308 160 L 309 159 L 309 146 L 308 145 L 308 143 L 307 142 L 307 141 L 306 140 L 305 137 L 302 134 L 302 133 L 298 129 L 297 129 L 295 127 L 294 127 L 289 124 L 286 124 L 285 123 Z M 70 124 L 70 126 L 69 127 L 69 177 L 70 178 L 70 181 L 71 182 L 95 182 L 96 181 L 102 181 L 103 180 L 106 180 L 107 179 L 109 179 L 110 178 L 112 178 L 113 177 L 114 177 L 116 175 L 119 174 L 127 166 L 127 165 L 128 164 L 128 160 L 127 159 L 127 157 L 126 156 L 126 155 L 124 153 L 124 152 L 120 148 L 120 147 L 110 137 L 109 137 L 106 134 L 105 134 L 100 130 L 99 130 L 94 127 L 92 127 L 89 125 L 87 125 L 86 124 L 82 124 L 81 123 L 71 123 Z M 26 123 L 25 124 L 21 124 L 18 126 L 16 126 L 15 127 L 14 127 L 12 129 L 11 129 L 5 135 L 5 136 L 3 138 L 3 139 L 2 140 L 2 142 L 1 143 L 1 145 L 0 146 L 0 158 L 1 159 L 1 162 L 2 163 L 2 165 L 3 166 L 4 169 L 6 171 L 6 172 L 12 178 L 13 178 L 18 181 L 20 181 L 21 182 L 24 182 L 25 183 L 32 183 L 33 182 L 37 182 L 38 181 L 40 181 L 41 180 L 43 180 L 45 178 L 48 177 L 52 173 L 53 173 L 53 172 L 56 169 L 56 168 L 59 163 L 59 160 L 60 159 L 60 148 L 59 147 L 59 145 L 58 144 L 58 141 L 57 140 L 56 137 L 54 135 L 54 134 L 49 129 L 48 129 L 46 127 L 45 127 L 42 125 L 40 125 L 39 124 L 36 124 L 35 123 Z M 239 124 L 236 122 L 233 122 L 232 123 L 227 123 L 226 124 L 224 124 L 223 125 L 220 125 L 219 126 L 218 126 L 217 127 L 216 127 L 215 128 L 214 128 L 213 129 L 212 129 L 211 130 L 208 131 L 206 133 L 205 133 L 203 135 L 202 135 L 199 138 L 198 138 L 186 150 L 186 151 L 184 153 L 184 154 L 181 159 L 181 164 L 182 165 L 183 168 L 187 172 L 188 172 L 190 174 L 191 174 L 192 175 L 195 176 L 197 178 L 199 178 L 202 180 L 205 180 L 206 181 L 211 181 L 212 182 L 238 182 L 239 181 L 239 175 L 240 174 L 240 126 L 239 125 Z M 244 92 L 243 93 L 242 93 L 240 95 L 239 95 L 239 96 L 237 99 L 237 105 L 238 106 L 238 107 L 240 109 L 241 109 L 244 111 L 250 111 L 251 110 L 252 110 L 255 107 L 255 106 L 256 105 L 256 98 L 255 97 L 255 96 L 252 93 L 251 93 L 250 92 Z M 56 94 L 54 96 L 54 97 L 53 98 L 53 100 L 52 101 L 52 103 L 53 104 L 53 106 L 57 110 L 59 110 L 60 111 L 65 111 L 66 110 L 68 110 L 71 107 L 71 106 L 72 105 L 72 99 L 71 98 L 71 97 L 67 93 L 66 93 L 65 92 L 60 92 L 59 93 Z M 226 56 L 225 56 L 224 55 L 203 55 L 202 56 L 197 56 L 196 57 L 193 57 L 192 58 L 190 58 L 189 59 L 188 59 L 187 60 L 186 60 L 185 61 L 184 61 L 183 62 L 180 63 L 175 68 L 174 68 L 173 69 L 173 70 L 168 75 L 168 76 L 167 77 L 167 78 L 164 83 L 164 85 L 163 86 L 163 90 L 162 91 L 162 106 L 161 107 L 161 146 L 162 147 L 162 148 L 165 147 L 167 145 L 168 145 L 170 143 L 171 143 L 173 141 L 174 141 L 177 138 L 178 138 L 180 136 L 181 136 L 183 134 L 184 134 L 186 132 L 187 132 L 189 130 L 190 130 L 193 127 L 194 127 L 196 125 L 197 125 L 200 122 L 201 122 L 206 117 L 207 117 L 214 110 L 214 109 L 217 106 L 217 105 L 218 104 L 218 103 L 219 102 L 219 101 L 220 100 L 220 99 L 223 94 L 223 92 L 224 91 L 224 89 L 225 88 L 225 84 L 226 83 L 226 77 L 227 76 L 227 58 L 226 57 Z M 184 107 L 185 108 L 185 113 L 186 114 L 185 115 L 185 119 L 184 120 L 184 121 L 182 123 L 182 124 L 178 128 L 177 128 L 174 131 L 171 132 L 170 131 L 170 123 L 171 122 L 171 120 L 172 119 L 173 116 L 175 114 L 175 113 L 179 109 L 180 109 L 182 107 Z M 85 55 L 83 57 L 83 58 L 82 59 L 82 76 L 83 77 L 83 83 L 84 84 L 84 88 L 85 89 L 85 91 L 86 92 L 86 94 L 87 95 L 87 97 L 88 98 L 88 99 L 89 100 L 89 101 L 90 102 L 91 105 L 95 109 L 95 110 L 102 117 L 103 117 L 108 122 L 109 122 L 116 128 L 117 128 L 119 130 L 120 130 L 123 133 L 124 133 L 126 135 L 127 135 L 129 137 L 130 137 L 132 139 L 133 139 L 135 141 L 136 141 L 138 143 L 139 143 L 144 147 L 147 148 L 148 147 L 148 102 L 147 101 L 147 91 L 146 90 L 146 86 L 145 85 L 145 83 L 144 82 L 144 81 L 143 80 L 142 77 L 140 75 L 140 74 L 137 71 L 137 70 L 136 70 L 130 64 L 129 64 L 127 62 L 126 62 L 121 59 L 119 59 L 118 58 L 116 58 L 115 57 L 112 57 L 111 56 L 106 56 L 105 55 Z M 124 107 L 127 107 L 129 109 L 130 109 L 135 114 L 135 115 L 137 117 L 137 119 L 138 120 L 138 122 L 139 123 L 139 131 L 138 132 L 137 132 L 136 131 L 135 131 L 133 129 L 132 129 L 126 123 L 126 122 L 124 119 L 124 117 L 123 116 L 123 108 Z M 148 0 L 147 1 L 144 1 L 143 2 L 142 2 L 141 3 L 140 3 L 139 4 L 136 5 L 131 10 L 131 11 L 129 13 L 129 14 L 126 19 L 126 21 L 125 22 L 125 37 L 126 38 L 126 40 L 127 41 L 127 43 L 128 44 L 128 45 L 130 47 L 130 48 L 137 55 L 138 55 L 143 58 L 145 58 L 146 59 L 150 59 L 151 60 L 159 60 L 160 59 L 163 59 L 164 58 L 166 58 L 167 57 L 170 56 L 172 54 L 173 54 L 178 49 L 178 48 L 180 46 L 180 45 L 183 40 L 183 37 L 184 36 L 184 30 L 185 29 L 185 28 L 184 27 L 184 21 L 183 20 L 183 18 L 182 17 L 182 16 L 181 15 L 180 12 L 174 6 L 173 6 L 171 4 L 170 4 L 167 2 L 165 2 L 164 1 L 161 1 L 160 0 Z" fill="#16523A" fill-rule="evenodd"/>
</svg>